simulation
nRows=36
nColumns=15
endheader
time  TH_x TH_y TH_z SC_y  SC_z  SC_x  AC_y  AC_z  AC_x  GH_y  GH_z  GH_yy  EL_x  PS_y
0.250000  0.000000  0.000000  0.000000  -18.809003  -3.858801  -1.428571  53.130957  20.848792  -7.612573  -62.969615  55.856012  15.481323  35.836086  116.000731
0.250146  0.000000  0.000000  0.000000  -18.809003  -3.858801  7.142857  54.714065  13.916041  -12.898592  -62.969615  55.856012  15.481323  35.836086  116.000731
0.250292  0.000000  0.000000  0.000000  -18.809003  -3.858801  15.714286  55.614042  6.876193  -17.873479  -62.969615  55.856012  15.481323  35.836086  116.000731
0.250438  0.000000  0.000000  0.000000  -18.809003  -3.858801  24.285714  55.895334  -0.213462  -22.702033  -62.969615  55.856012  15.481323  35.836086  116.000731
0.250584  0.000000  0.000000  0.000000  -18.809003  -3.858801  32.857143  55.577814  -7.301605  -27.535058  -62.969615  55.856012  15.481323  35.836086  116.000731
0.250730  0.000000  0.000000  0.000000  -18.809003  -3.858801  41.428571  54.639037  -14.336722  -32.523782  -62.969615  55.856012  15.481323  35.836086  116.000731
0.250876  0.000000  0.000000  0.000000  -18.809003  -3.858801  50.000000  53.011706  -21.260958  -37.834334  -62.969615  55.856012  15.481323  35.836086  116.000731
0.251022  0.000000  0.000000  0.000000  -19.663969  10.149430  -10.000000  54.440734  30.918037  0.498431  -43.487011  59.061477  -0.162865  48.231336  124.611242
0.251168  0.000000  0.000000  0.000000  -19.663969  10.149430  -1.428571  56.947069  23.831823  -4.938722  -43.487011  59.061477  -0.162865  48.231336  124.611242
0.251314  0.000000  0.000000  0.000000  -19.663969  10.149430  7.142857  58.631596  16.574966  -9.804047  -43.487011  59.061477  -0.162865  48.231336  124.611242
0.251460  0.000000  0.000000  0.000000  -19.663969  10.149430  15.714286  59.640129  9.213483  -14.311944  -43.487011  59.061477  -0.162865  48.231336  124.611242
0.251606  0.000000  0.000000  0.000000  -19.663969  10.149430  24.285714  60.055900  1.798269  -18.634266  -43.487011  59.061477  -0.162865  48.231336  124.611242
0.251752  0.000000  0.000000  0.000000  -19.663969  10.149430  32.857143  59.912310  -5.627093  -22.921441  -43.487011  59.061477  -0.162865  48.231336  124.611242
0.251898  0.000000  0.000000  0.000000  -19.663969  10.149430  41.428571  59.197901  -13.020347  -27.319787  -43.487011  59.061477  -0.162865  48.231336  124.611242
0.252044  0.000000  0.000000  0.000000  -19.663969  10.149430  50.000000  57.854635  -20.334961  -31.988454  -43.487011  59.061477  -0.162865  48.231336  124.611242
0.252190  0.000000  0.000000  0.000000  -25.447423  20.527218  -10.000000  50.258812  5.061840  13.257918  5.747425  87.950020  74.944648  11.433110  121.899353
0.252336  0.000000  0.000000  0.000000  -25.447423  20.527218  -1.428571  50.427196  -1.542142  7.788161  5.747425  87.950020  74.944648  11.433110  121.899353
0.252482  0.000000  0.000000  0.000000  -25.447423  20.527218  7.142857  49.961972  -8.131999  2.284289  5.747425  87.950020  74.944648  11.433110  121.899353
0.252629  0.000000  0.000000  0.000000  -25.447423  20.527218  15.714286  48.836243  -14.645407  -3.402945  5.747425  87.950020  74.944648  11.433110  121.899353
0.252775  0.000000  0.000000  0.000000  -25.447423  20.527218  24.285714  46.984882  -21.012424  -9.435286  5.747425  87.950020  74.944648  11.433110  121.899353
0.252921  0.000000  0.000000  0.000000  -25.447423  20.527218  32.857143  44.301521  -27.148259  -15.996461  5.747425  87.950020  74.944648  11.433110  121.899353
0.253067  0.000000  0.000000  0.000000  -25.447423  20.527218  41.428571  40.636867  -32.944472  -23.298752  5.747425  87.950020  74.944648  11.433110  121.899353
0.253213  0.000000  0.000000  0.000000  -25.447423  20.527218  50.000000  35.805111  -38.258408  -31.580237  5.747425  87.950020  74.944648  11.433110  121.899353
0.253359  0.000000  0.000000  0.000000  -22.139727  -2.319147  -10.000000  50.714501  9.066755  11.852255  -3.562559  40.754274  -4.374791  29.535048  118.937540
0.253505  0.000000  0.000000  0.000000  -22.139727  -2.319147  -1.428571  51.257364  2.401833  6.432337  -3.562559  40.754274  -4.374791  29.535048  118.937540
0.253651  0.000000  0.000000  0.000000  -22.139727  -2.319147  7.142857  51.168972  -4.284332  1.065303  -3.562559  40.754274  -4.374791  29.535048  118.937540
0.253797  0.000000  0.000000  0.000000  -22.139727  -2.319147  15.714286  50.444079  -10.932411  -4.396418  -3.562559  40.754274  -4.374791  29.535048  118.937540
0.253943  0.000000  0.000000  0.000000  -22.139727  -2.319147  24.285714  49.039202  -17.479186  -10.107343  -3.562559  40.754274  -4.374791  29.535048  118.937540
0.254089  0.000000  0.000000  0.000000  -22.139727  -2.319147  32.857143  46.869888  -23.850908  -16.239750  -3.562559  40.754274  -4.374791  29.535048  118.937540
0.254235  0.000000  0.000000  0.000000  -22.139727  -2.319147  41.428571  43.806721  -29.955308  -22.993591  -3.562559  40.754274  -4.374791  29.535048  118.937540
0.254381  0.000000  0.000000  0.000000  -22.139727  -2.319147  50.000000  39.674251  -35.671440  -30.602054  -3.562559  40.754274  -4.374791  29.535048  118.937540
0.254527  0.000000  0.000000  0.000000  -14.633724  0.437260  -10.000000  47.303128  18.647162  5.978650  73.146715  34.877683  -14.440064  23.744288  117.613366
0.254673  0.000000  0.000000  0.000000  -14.633724  0.437260  -1.428571  48.888854  12.261832  0.042045  73.146715  34.877683  -14.440064  23.744288  117.613366
0.254819  0.000000  0.000000  0.000000  -14.633724  0.437260  7.142857  49.776052  5.755027  -5.610464  73.146715  34.877683  -14.440064  23.744288  117.613366
0.254965  0.000000  0.000000  0.000000  -14.633724  0.437260  15.714286  50.015110  -0.806105  -11.134169  73.146715  34.877683  -14.440064  23.744288  117.613366
0.255111  0.000000  0.000000  0.000000  -14.633724  0.437260  24.285714  49.619598  -7.359730  -16.675746  73.146715  34.877683  -14.440064  23.744288  117.613366
